<?xml version="1.0" encoding="utf-8"?>
<!-- Generator: Adobe Illustrator 16.0.0, SVG Export Plug-In . SVG Version: 6.00 Build 0)  -->
<!DOCTYPE svg PUBLIC "-//W3C//DTD SVG 1.1//EN" "http://www.w3.org/Graphics/SVG/1.1/DTD/svg11.dtd">
<svg version="1.1" id="Layer_1" xmlns="http://www.w3.org/2000/svg" xmlns:xlink="http://www.w3.org/1999/xlink" x="0px" y="0px"
	 width="19.21px" height="19.219px" viewBox="0 0 19.21 19.219" style="enable-background:new 0 0 19.21 19.219;"
	 xml:space="preserve">
<style type="text/css">
<![CDATA[
	.st0{fill:#FEFEFE;}
	.st1{fill:#FFFF00;}
]]>
</style>
<path class="st0" d="M11.817,12.172c-1.506,0-3.012-0.011-4.518,0.008c-0.325,0.006-0.389-0.096-0.386-0.396
	c0.016-1.413,0.018-2.827-0.001-4.24C6.908,7.23,7.006,7.172,7.292,7.18C8.065,7.2,8.838,7.174,9.61,7.193
	C9.883,7.2,9.95,7.112,9.938,6.856c-0.02-0.465-0.014-0.933,0-1.399c0.004-0.199-0.037-0.277-0.26-0.275
	C8.186,5.191,6.692,5.195,5.2,5.179C4.911,5.176,4.917,5.316,4.918,5.52c0.004,2.093-0.003,4.187,0.009,6.279
	c0.002,0.282-0.041,0.399-0.361,0.383c-0.586-0.031-1.174-0.025-1.76-0.002c-0.272,0.012-0.392-0.07-0.476-0.334
	C0.997,7.662,3.703,3.044,8.012,2.165c4.25-0.867,8.286,1.841,9.081,6.11c0.224,1.196,0.134,2.386-0.211,3.558
	c-0.075,0.259-0.184,0.351-0.465,0.347C14.884,12.164,13.352,12.172,11.817,12.172z"/>
<path class="st0" d="M15.625,14.186c-2.953,4.049-9.164,3.976-12.013,0.039C3.994,14.146,13.746,14.114,15.625,14.186z"/>
<path class="st0" d="M2.506,6.785C3.615,4.313,5.4,2.707,8,2.164c4.255-0.889,8.189,1.757,9.062,6.019
	c0.213,1.045,0.168,2.092-0.057,3.133c-0.043,0.199-0.119,0.274-0.34,0.274c-1.974-0.011-3.945-0.011-5.92,0
	c-0.246,0-0.31-0.06-0.308-0.308c0.013-1.386-0.004-2.772,0.015-4.159c0.002-0.285-0.082-0.348-0.355-0.347
	C7.591,6.79,5.085,6.785,2.506,6.785z"/>
<path class="st0" d="M16.062,13.585c-1.135,1.735-2.625,2.867-4.562,3.358c-4.994,1.269-9.706-2.567-9.512-7.716
	C2,8.919,2.039,8.769,2.425,8.773C4.318,8.8,6.209,8.792,8.1,8.778c0.28-0.001,0.354,0.07,0.351,0.352
	c-0.015,1.371,0.002,2.744-0.014,4.116c-0.003,0.283,0.074,0.347,0.35,0.347C11.185,13.58,13.583,13.585,16.062,13.585z"/>
<g>
	<path d="M10.603,0c0.469,0.103,0.943,0.189,1.41,0.311c4.404,1.148,7.297,5.047,7.189,9.68c-0.103,4.327-3.339,8.137-7.668,9.03
		C6.022,20.16,0.643,16.25,0.053,10.676C-0.472,5.708,2.765,1.245,7.655,0.19C7.944,0.128,8.253,0.15,8.522,0
		C9.215,0,9.908,0,10.603,0z"/>
	<path class="st1" d="M4.299,4.172C5.313,3.192,6.416,2.548,7.69,2.25c2.995-0.701,5.603,0.056,7.625,2.367
		c2.004,2.287,2.381,4.943,1.36,7.803c-0.104,0.293-0.229,0.411-0.582,0.406c-1.854-0.028-3.704-0.021-5.561-0.006
		c-0.344,0.003-0.479-0.06-0.463-0.442c0.033-0.812,0.015-1.626,0.01-2.439c-0.004-0.624,0.083-0.536-0.52-0.537
		C7.175,9.398,4.789,9.396,2.403,9.406c-0.297,0.001-0.418-0.04-0.385-0.385C2.106,8.152,2.31,7.322,2.653,6.519
		C2.76,6.266,2.891,6.165,3.182,6.166c2.119,0.015,4.239,0,6.359,0.016C9.872,6.184,9.98,6.103,9.954,5.767
		c-0.032-0.397-0.026-0.8-0.002-1.199c0.021-0.305-0.06-0.406-0.388-0.403C7.847,4.182,6.127,4.172,4.299,4.172z"/>
	<path class="st1" d="M15.13,14.812c-1.232,1.278-2.644,2.03-4.295,2.293c-3.794,0.606-7.342-1.616-8.505-5.289
		c-0.103-0.318-0.091-0.43,0.292-0.424c1.68,0.019,3.359,0.021,5.038-0.002c0.37-0.006,0.438,0.111,0.429,0.448
		c-0.023,0.839,0.01,1.681-0.016,2.519c-0.01,0.351,0.062,0.472,0.445,0.468c2.04-0.022,4.079-0.013,6.12-0.013
		C14.769,14.812,14.898,14.812,15.13,14.812z"/>
</g>
</svg>
