<?xml version="1.0" encoding="utf-8"?>
<!-- Generator: Adobe Illustrator 16.0.0, SVG Export Plug-In . SVG Version: 6.00 Build 0)  -->
<!DOCTYPE svg PUBLIC "-//W3C//DTD SVG 1.1//EN" "http://www.w3.org/Graphics/SVG/1.1/DTD/svg11.dtd">
<svg version="1.1" id="Layer_1" xmlns="http://www.w3.org/2000/svg" xmlns:xlink="http://www.w3.org/1999/xlink" x="0px" y="0px"
	 width="19.21px" height="19.219px" viewBox="0 0 19.21 19.219" style="enable-background:new 0 0 19.21 19.219;"
	 xml:space="preserve">
<style type="text/css">
<![CDATA[
	.st0{fill:#FFFF00;}
]]>
</style>
<path d="M10.639,0c0.323,0.153,0.68,0.147,1.021,0.219c4.318,0.914,7.709,4.907,7.545,9.731c-0.147,4.313-3.236,8.138-7.633,9.062
	C6.26,20.127,1.094,16.623,0.141,11.27C0.114,11.111,0.157,10.921,0,10.8C0,10,0,9.2,0,8.4c0.103-1.012,0.373-1.973,0.806-2.897
	c0.854-1.83,2.162-3.241,3.883-4.278C5.515,0.727,6.41,0.393,7.345,0.153C7.719,0.057,8.108,0.104,8.479,0C9.2,0,9.92,0,10.639,0z"
	/>
<path class="st0" d="M11.817,12.172c-1.506,0-3.012-0.011-4.518,0.008c-0.325,0.006-0.389-0.096-0.386-0.396
	c0.016-1.413,0.018-2.827-0.001-4.24C6.908,7.23,7.006,7.172,7.292,7.18C8.065,7.2,8.838,7.174,9.61,7.193
	C9.883,7.2,9.95,7.112,9.938,6.856c-0.02-0.465-0.014-0.933,0-1.399c0.004-0.199-0.037-0.277-0.26-0.275
	C8.186,5.191,6.692,5.195,5.2,5.179C4.911,5.176,4.917,5.316,4.918,5.52c0.004,2.093-0.003,4.187,0.009,6.279
	c0.002,0.282-0.041,0.399-0.361,0.383c-0.586-0.031-1.174-0.025-1.76-0.002c-0.272,0.012-0.392-0.07-0.476-0.334
	C0.997,7.662,3.703,3.044,8.012,2.165c4.25-0.867,8.286,1.841,9.081,6.11c0.224,1.196,0.134,2.386-0.211,3.558
	c-0.075,0.259-0.184,0.351-0.465,0.347C14.884,12.164,13.352,12.172,11.817,12.172z"/>
<path class="st0" d="M15.625,14.186c-2.953,4.049-9.164,3.976-12.013,0.039C3.994,14.146,13.746,14.114,15.625,14.186z"/>
</svg>
