<?xml version="1.0" encoding="utf-8"?>
<!-- Generator: Adobe Illustrator 16.0.0, SVG Export Plug-In . SVG Version: 6.00 Build 0)  -->
<!DOCTYPE svg PUBLIC "-//W3C//DTD SVG 1.1//EN" "http://www.w3.org/Graphics/SVG/1.1/DTD/svg11.dtd">
<svg version="1.1" id="Layer_1" xmlns="http://www.w3.org/2000/svg" xmlns:xlink="http://www.w3.org/1999/xlink" x="0px" y="0px"
	 width="63.867px" height="61.782px" viewBox="4.059 5.719 63.867 61.782" enable-background="new 4.059 5.719 63.867 61.782"
	 xml:space="preserve">
<g>
	<circle cx="30.138" cy="62.41" r="5.091"/>
	<circle cx="58.901" cy="62.41" r="5.091"/>
	<path d="M19.807,14.617l-2.398-8.897h-2.667h-2.15H6.789c-1.508,0-2.729,1.294-2.729,2.891c0,1.598,1.222,2.892,2.729,2.892h6.188
		L25.048,56.27l0.024-0.006h38.92V50.48H29.476l-1.362-5.049h35.878v-0.09l3.934-27.383L19.807,14.617z M61.187,29.733H50.773
		l0.85-7.944l10.6,0.727L61.187,29.733z M35.941,29.733l-2.06-9.161L48.857,21.6l-0.872,8.133H35.941z M47.775,31.693l-0.936,8.747
		h-8.49l-1.966-8.747H47.775z M30.996,20.374l2.104,9.359h-9.218l-2.705-10.032L30.996,20.374z M26.769,40.439l-2.358-8.747h9.131
		l1.967,8.747H26.769z M49.627,40.439l0.938-8.747h10.342l-1.254,8.747H49.627z"/>
</g>
</svg>
