<?xml version="1.0" encoding="utf-8"?>
<!-- Generator: Adobe Illustrator 16.0.0, SVG Export Plug-In . SVG Version: 6.00 Build 0)  -->
<!DOCTYPE svg PUBLIC "-//W3C//DTD SVG 1.1//EN" "http://www.w3.org/Graphics/SVG/1.1/DTD/svg11.dtd">
<svg version="1.1" id="Layer_1" xmlns="http://www.w3.org/2000/svg" xmlns:xlink="http://www.w3.org/1999/xlink" x="0px" y="0px"
	 width="46.08px" height="40.693px" viewBox="12.96 8.843 46.08 40.693" enable-background="new 12.96 8.843 46.08 40.693"
	 xml:space="preserve">
<path d="M45.972,8.843c-3.94,0-7.511,1.839-9.972,4.986c-2.46-3.146-6.031-4.986-9.972-4.986c-6.494,0-13.068,5.272-13.068,15.349
	c0,10.479,11.263,18.396,21.819,24.994c0.374,0.233,0.798,0.351,1.221,0.351s0.848-0.117,1.221-0.351
	C47.777,42.588,59.04,34.671,59.04,24.192C59.04,14.115,52.465,8.843,45.972,8.843z M36,44.514
	c-7.055-4.436-18.432-12.018-18.432-20.322c0-7.38,4.386-10.741,8.46-10.741c3.442,0,6.371,2.182,7.833,5.837
	c0.35,0.874,1.197,1.448,2.139,1.448s1.789-0.574,2.139-1.449c1.463-3.655,4.391-5.837,7.833-5.837c4.075,0,8.46,3.361,8.46,10.742
	C54.432,32.496,43.055,40.078,36,44.514z"/>
</svg>
