<?xml version="1.0" encoding="utf-8"?>
<!-- Generator: Adobe Illustrator 16.0.0, SVG Export Plug-In . SVG Version: 6.00 Build 0)  -->
<!DOCTYPE svg PUBLIC "-//W3C//DTD SVG 1.1//EN" "http://www.w3.org/Graphics/SVG/1.1/DTD/svg11.dtd">
<svg version="1.1" id="Layer_1" xmlns="http://www.w3.org/2000/svg" xmlns:xlink="http://www.w3.org/1999/xlink" x="0px" y="0px"
	 width="19.21px" height="19.219px" viewBox="0 0 19.21 19.219" style="enable-background:new 0 0 19.21 19.219;"
	 xml:space="preserve">
<style type="text/css">
<![CDATA[
	.st0{fill:#FEFEFE;}
	.st1{fill:#FFFF00;}
]]>
</style>
<path class="st0" d="M11.817,12.172c-1.506,0-3.012-0.011-4.518,0.008c-0.325,0.006-0.389-0.096-0.386-0.396
	c0.016-1.413,0.018-2.827-0.001-4.24C6.908,7.23,7.006,7.172,7.292,7.18C8.065,7.2,8.838,7.174,9.61,7.193
	C9.883,7.2,9.95,7.112,9.938,6.856c-0.02-0.465-0.014-0.933,0-1.399c0.004-0.199-0.037-0.277-0.26-0.275
	C8.186,5.191,6.692,5.195,5.2,5.179C4.911,5.176,4.917,5.316,4.918,5.52c0.004,2.093-0.003,4.187,0.009,6.279
	c0.002,0.282-0.041,0.399-0.361,0.383c-0.586-0.031-1.174-0.025-1.76-0.002c-0.272,0.012-0.392-0.07-0.476-0.334
	C0.997,7.662,3.703,3.044,8.012,2.165c4.25-0.867,8.286,1.841,9.081,6.11c0.224,1.196,0.134,2.386-0.211,3.558
	c-0.075,0.259-0.184,0.351-0.465,0.347C14.884,12.164,13.352,12.172,11.817,12.172z"/>
<path class="st0" d="M15.625,14.186c-2.953,4.049-9.164,3.976-12.013,0.039C3.994,14.146,13.746,14.114,15.625,14.186z"/>
<path d="M10.619-0.014c0.32,0.157,0.682,0.136,1.021,0.219c3.653,0.896,6.123,3.13,7.164,6.728c1.03,3.57,0.2,6.818-2.438,9.445
	c-2.686,2.674-5.988,3.481-9.604,2.372c-3.584-1.102-5.811-3.616-6.586-7.29C-0.971,6.031,2.871,0.744,8.377,0.064
	c0.062-0.009,0.136,0.009,0.161-0.078C9.232-0.014,9.925-0.014,10.619-0.014z"/>
<path class="st1" d="M2.506,6.785C3.615,4.313,5.4,2.707,8,2.164c4.255-0.889,8.189,1.757,9.062,6.019
	c0.213,1.045,0.168,2.092-0.057,3.133c-0.043,0.199-0.119,0.274-0.34,0.274c-1.974-0.011-3.945-0.011-5.92,0
	c-0.246,0-0.31-0.06-0.308-0.308c0.013-1.386-0.004-2.772,0.015-4.159c0.002-0.285-0.082-0.348-0.355-0.347
	C7.591,6.79,5.085,6.785,2.506,6.785z"/>
<path class="st1" d="M16.062,13.585c-1.135,1.735-2.625,2.867-4.562,3.358c-4.994,1.269-9.706-2.567-9.512-7.716
	C2,8.919,2.039,8.769,2.425,8.773C4.318,8.8,6.209,8.792,8.1,8.778c0.28-0.001,0.354,0.07,0.351,0.352
	c-0.015,1.371,0.002,2.744-0.014,4.116c-0.003,0.283,0.074,0.347,0.35,0.347C11.185,13.58,13.583,13.585,16.062,13.585z"/>
</svg>
